<svg width="24" height="24" viewBox="0 0 24 24" fill="none" xmlns="http://www.w3.org/2000/svg">
<path d="M12 0C5.37266 0 0 5.37266 0 12C0 18.6273 5.37266 24 12 24C18.6273 24 24 18.6273 24 12C23.9926 5.37578 18.6242 0.0074219 12 0ZM12 23.2C5.81445 23.2 0.8 18.1855 0.8 12C0.8 5.81445 5.81445 0.8 12 0.8C18.1855 0.8 23.2 5.81445 23.2 12C23.193 18.1826 18.1826 23.193 12 23.2Z" fill="black" fill-opacity="0.85"/>
<path d="M17.2 4.79999H6.8C5.6959 4.80135 4.80137 5.69589 4.8 6.79999V17.2C4.80137 18.3041 5.6959 19.1986 6.8 19.2H17.2C18.3041 19.1986 19.1986 18.3041 19.2 17.2V6.79999C19.1986 5.69589 18.3041 4.80135 17.2 4.79999ZM18.4 17.2C18.4 17.8627 17.8627 18.4 17.2 18.4H6.8C6.13731 18.4 5.6 17.8627 5.6 17.2V6.79999C5.6 6.13729 6.13731 5.59999 6.8 5.59999H17.2C17.8627 5.59999 18.4 6.13729 18.4 6.79999V17.2Z" fill="black" fill-opacity="0.85"/>
<path d="M12 8C9.79082 8 8 9.79082 8 12C8 14.2092 9.79082 16 12 16C14.2092 16 16 14.2092 16 12C15.9977 9.7918 14.2082 8.00234 12 8ZM12 15.2C10.2326 15.2 8.8 13.7674 8.8 12C8.8 10.2326 10.2326 8.8 12 8.8C13.7674 8.8 15.2 10.2326 15.2 12C15.198 13.7664 13.7664 15.198 12 15.2Z" fill="black" fill-opacity="0.85"/>
<path d="M16.4 6.39996C15.7373 6.39996 15.2 6.93727 15.2 7.59996C15.2 8.26266 15.7373 8.79996 16.4 8.79996C17.0627 8.79996 17.6 8.26266 17.6 7.59996C17.6 6.93727 17.0627 6.39996 16.4 6.39996ZM16.4 7.99996C16.1791 7.99996 16 7.82086 16 7.59996C16 7.37906 16.1791 7.19996 16.4 7.19996C16.6209 7.19996 16.8 7.37906 16.8 7.59996C16.8 7.82086 16.6209 7.99996 16.4 7.99996Z" fill="black" fill-opacity="0.85"/>
</svg>
